<svg id="bf42b20b-d27a-442b-ac92-e61487fa75c5" data-name="Calque 1" xmlns="http://www.w3.org/2000/svg" width="277.28" height="52.34" viewBox="0 0 277.28 52.34">
  <defs>
    <style>
      .a4dcac12-f771-49b8-857d-e9082f152078 {
        fill: #935b9e;
      }

      .bf5522ee-22f6-4b0b-9072-552dba213bb3 {
        fill: #8fbe54;
      }

      .b9ef2fd8-cf62-410e-b52f-f61612e1eb36 {
        fill: #36b6d4;
      }

      .a8b1f034-2fc9-4a81-9193-0888d803e054 {
        fill: #facf53;
      }

      .b0430f21-6e2f-4a7d-ba47-8f5735ff1f11 {
        fill: #d94759;
      }

      .ac51777b-4c17-4639-b6a4-7fb427c413b4 {
        fill: #4b4b99;
      }

      .f85d22f9-acbe-4f44-8e59-3ff5d752e3a5 {
        fill: #e4803e;
      }

      .bf3a2f45-7f2b-409f-9e17-bad5ca918874 {
        fill: #1e1e1c;
      }
    </style>
  </defs>
  <g>
    <g>
      <g>
        <path d="M74.19,33H59.44c.4,3,2.82,5.54,6.88,5.54A10.62,10.62,0,0,0,71,37.33a2.68,2.68,0,0,1,3.91,2.22c0,2.82-6.09,4-9.26,4-7.28,0-12.77-4.9-12.77-12.57a12.16,12.16,0,0,1,11.8-12.52h.57a11.42,11.42,0,0,1,11.19,8.07,12.41,12.41,0,0,1,.69,3.62A2.91,2.91,0,0,1,74.19,33Zm-9-9.55a5.75,5.75,0,0,0-5.9,5.3H71.13a5.54,5.54,0,0,0-5.77-5.31Z" transform="translate(0)"/>
        <path d="M95.26,43.51a9.15,9.15,0,0,1-7.38-3.66v9.41a3.14,3.14,0,0,1-6.28,0V21.78a3.12,3.12,0,0,1,3.16-3.07h0a3.09,3.09,0,0,1,3.07,3.07V22a9.23,9.23,0,0,1,7.38-3.61c6.14,0,10.59,4.55,10.59,12.52S101.4,43.51,95.26,43.51Zm-2-19.5a7,7,0,0,0-5.4,2.73V35.2a7.22,7.22,0,0,0,5.4,2.73c3.61,0,6-2.83,6-7S96.89,24,93.28,24Z" transform="translate(0)"/>
        <path d="M119.25,43.51c-3.11,0-8.11-1-9.59-3.16a2.19,2.19,0,0,1-.45-1.34,2.67,2.67,0,0,1,2.62-2.62,2.42,2.42,0,0,1,1.29.34,13.85,13.85,0,0,0,6.44,1.93c2.72,0,4-1.09,4-2.57,0-4-14.21-.75-14.21-10.15,0-4,3.51-7.52,9.8-7.52,3.12,0,7.38,1,8.71,2.92a2.1,2.1,0,0,1,.4,1.23,2.48,2.48,0,0,1-3.66,2.08,11,11,0,0,0-5.4-1.43c-2.28,0-3.76,1-3.76,2.37,0,3.57,14.16.6,14.16,10.25C129.6,40.2,125.89,43.51,119.25,43.51Z" transform="translate(0)"/>
        <path d="M141,12.67A3.77,3.77,0,1,1,137.18,9h0A3.73,3.73,0,0,1,141,12.64Zm-3.77,30.55a3.1,3.1,0,0,1-3.11-3.1V21.78a3.12,3.12,0,0,1,3.16-3.07h.06a3.07,3.07,0,0,1,3.06,3.07V40.1a3.12,3.12,0,0,1-3.11,3.12Z" transform="translate(0)"/>
      </g>
      <g>
        <rect class="a4dcac12-f771-49b8-857d-e9082f152078" x="28" y="36.61" width="7" height="7"/>
        <rect class="bf5522ee-22f6-4b0b-9072-552dba213bb3" x="7" y="29.61" width="7" height="7"/>
        <path class="b9ef2fd8-cf62-410e-b52f-f61612e1eb36" d="M28,22.61v7H21v7H14v7H28v-7h7v-14Z" transform="translate(0)"/>
        <path class="a8b1f034-2fc9-4a81-9193-0888d803e054" d="M21,22.61H14v14h7v-7h7v-7Z" transform="translate(0)"/>
        <path class="b0430f21-6e2f-4a7d-ba47-8f5735ff1f11" d="M28.75,0V7h7v7h7V0Z" transform="translate(0)"/>
        <path class="ac51777b-4c17-4639-b6a4-7fb427c413b4" d="M14,15.61v-7H0v35H14v-7H7v-7h7v-7H7v-7Z" transform="translate(0)"/>
        <path class="f85d22f9-acbe-4f44-8e59-3ff5d752e3a5" d="M21,15.61v-7H14v7H7v7H28v-7Z" transform="translate(0)"/>
      </g>
    </g>
    <g>
      <path d="M174.85,22.22h1.38v8.19h-1.38Z" transform="translate(0)"/>
      <path d="M179,22.39a.87.87,0,0,1,.25.65,1.74,1.74,0,0,1-.05.39c0,.12-.1.31-.19.56l-.58,1.57h-.89l.44-1.7a.71.71,0,0,1-.38-.3.91.91,0,0,1-.14-.51.83.83,0,0,1,.26-.65.93.93,0,0,1,1.28,0Z" transform="translate(0)"/>
      <path d="M185.65,27.9H181a1.6,1.6,0,0,0,.64,1,2,2,0,0,0,1.27.38,2.13,2.13,0,0,0,1.6-.64l.74.85a2.47,2.47,0,0,1-1,.72,4,4,0,0,1-3.08-.14A2.76,2.76,0,0,1,180.05,29a3.26,3.26,0,0,1,0-3.11,2.8,2.8,0,0,1,1.08-1.08,3.33,3.33,0,0,1,3.11,0,2.75,2.75,0,0,1,1.06,1.08,3.28,3.28,0,0,1,.38,1.6C185.67,27.59,185.66,27.72,185.65,27.9Zm-4.08-2a1.66,1.66,0,0,0-.56,1h3.34a1.54,1.54,0,0,0-.54-1,1.59,1.59,0,0,0-1.12-.4,1.68,1.68,0,0,0-1.12.39Zm1.65-3.75h1.62l-1.92,1.52h-1.19Z" transform="translate(0)"/>
      <path d="M187.88,30.1A2.86,2.86,0,0,1,186.75,29a3.16,3.16,0,0,1,0-3.12,2.91,2.91,0,0,1,1.13-1.07,3.37,3.37,0,0,1,1.65-.38,3,3,0,0,1,1.53.35,2.28,2.28,0,0,1,1,1l-1.06.62a1.61,1.61,0,0,0-.63-.61,1.84,1.84,0,0,0-2.11.3,2,2,0,0,0,0,2.68,1.85,1.85,0,0,0,2.12.3,1.61,1.61,0,0,0,.63-.61l1.06.62a2.4,2.4,0,0,1-1,1,3.17,3.17,0,0,1-1.51.36A3.49,3.49,0,0,1,187.88,30.1Z" transform="translate(0)"/>
      <path d="M194,30.1A2.9,2.9,0,0,1,192.9,29a3.26,3.26,0,0,1,0-3.12A3,3,0,0,1,194,24.83a3.62,3.62,0,0,1,3.24,0,3,3,0,0,1,1.12,1.07,3.21,3.21,0,0,1,0,3.12,2.84,2.84,0,0,1-1.12,1.08A3.62,3.62,0,0,1,194,30.1Zm2.87-1.3a2,2,0,0,0,0-2.67,1.65,1.65,0,0,0-1.25-.51,1.67,1.67,0,0,0-1.26.51,2.07,2.07,0,0,0,0,2.67,1.81,1.81,0,0,0,2.52,0Z" transform="translate(0)"/>
      <path d="M199.94,22.22h1.38v8.19h-1.38Z" transform="translate(0)"/>
      <path d="M208.49,27.9h-4.63a1.65,1.65,0,0,0,.63,1,2.1,2.1,0,0,0,1.28.38,2.13,2.13,0,0,0,1.6-.64l.74.85a2.47,2.47,0,0,1-1,.72,4,4,0,0,1-3.08-.15A2.74,2.74,0,0,1,202.89,29a3.08,3.08,0,0,1-.4-1.56,3,3,0,0,1,.39-1.56A2.74,2.74,0,0,1,204,24.83a3.31,3.31,0,0,1,3.1,0,2.63,2.63,0,0,1,1.06,1.08,3.08,3.08,0,0,1,.38,1.6C208.51,27.59,208.5,27.72,208.49,27.9Zm-4.08-2a1.63,1.63,0,0,0-.56,1h3.35a1.71,1.71,0,0,0-2.79-1Z" transform="translate(0)"/>
      <path d="M218.32,22.22v8.19H217v-.76a2.31,2.31,0,0,1-.85.63,3,3,0,0,1-1.11.21,3.16,3.16,0,0,1-1.53-.38,2.7,2.7,0,0,1-1.06-1.06,3.42,3.42,0,0,1,0-3.17,2.84,2.84,0,0,1,1.06-1.06,3.15,3.15,0,0,1,1.53-.37,2.61,2.61,0,0,1,1.07.2,2.06,2.06,0,0,1,.83.6v-3Zm-2.22,6.86a1.58,1.58,0,0,0,.63-.65,2.14,2.14,0,0,0,0-1.94,1.64,1.64,0,0,0-.63-.65,1.89,1.89,0,0,0-1.79,0,1.68,1.68,0,0,0-.62.65,2.14,2.14,0,0,0,0,1.94,1.62,1.62,0,0,0,.62.65A1.89,1.89,0,0,0,216.1,29.08Z" transform="translate(0)"/>
      <path d="M221.06,22.39a.87.87,0,0,1,.25.65,1.31,1.31,0,0,1-.05.39,4.6,4.6,0,0,1-.19.56l-.57,1.57h-.9l.44-1.7a.74.74,0,0,1-.38-.3.9.9,0,0,1-.13-.51.86.86,0,0,1,.25-.65.93.93,0,0,1,1.28,0Z" transform="translate(0)"/>
      <path d="M222.56,23.3a.81.81,0,0,1,0-1.15l0,0a.87.87,0,0,1,.63-.23.9.9,0,0,1,.63.22.72.72,0,0,1,.25.57.81.81,0,0,1-.24.61.85.85,0,0,1-.64.25A.87.87,0,0,1,222.56,23.3Zm-.07,1.21h1.39v5.9h-1.39Z" transform="translate(0)"/>
      <path d="M230.65,25.1a2.58,2.58,0,0,1,.68,1.93v3.38H230v-3.2a1.66,1.66,0,0,0-.37-1.17,1.37,1.37,0,0,0-1-.39,1.59,1.59,0,0,0-1.2.46,1.86,1.86,0,0,0-.44,1.32v3h-1.38v-5.9h1.32v.76a2.14,2.14,0,0,1,.86-.62,3.32,3.32,0,0,1,1.17-.21A2.44,2.44,0,0,1,230.65,25.1Z" transform="translate(0)"/>
      <path d="M238.82,24.51v5c0,2.08-1.06,3.11-3.18,3.11a5.88,5.88,0,0,1-1.61-.21,3.45,3.45,0,0,1-1.26-.62l.62-1a3,3,0,0,0,1,.51,3.72,3.72,0,0,0,1.2.19A1.94,1.94,0,0,0,237,31a1.79,1.79,0,0,0,.45-1.35v-.3a2.34,2.34,0,0,1-.86.58,3,3,0,0,1-1.11.2,3.21,3.21,0,0,1-1.52-.36,2.73,2.73,0,0,1-1.07-1,3,3,0,0,1,0-3,2.64,2.64,0,0,1,1.07-1,3.33,3.33,0,0,1,1.52-.36,3.26,3.26,0,0,1,1.16.21,2.18,2.18,0,0,1,.88.64v-.78Zm-1.86,4a1.57,1.57,0,0,0,.5-1.22,1.52,1.52,0,0,0-.5-1.2,2,2,0,0,0-2.58,0,1.55,1.55,0,0,0-.5,1.2,1.57,1.57,0,0,0,.5,1.22A2,2,0,0,0,237,28.5Z" transform="translate(0)"/>
      <path d="M246,27.9h-4.63a1.6,1.6,0,0,0,.64,1,2,2,0,0,0,1.27.38,2.13,2.13,0,0,0,1.6-.64l.74.85a2.47,2.47,0,0,1-1,.72,4,4,0,0,1-3.08-.14A2.76,2.76,0,0,1,240.39,29a3.26,3.26,0,0,1,0-3.11,2.8,2.8,0,0,1,1.08-1.08,3.33,3.33,0,0,1,3.11,0,2.75,2.75,0,0,1,1.06,1.08,3.28,3.28,0,0,1,.38,1.6C246,27.59,246,27.72,246,27.9Zm-4.08-2a1.66,1.66,0,0,0-.56,1h3.34a1.54,1.54,0,0,0-.54-1,1.59,1.59,0,0,0-1.12-.4,1.68,1.68,0,0,0-1.12.39Zm1.65-3.75h1.62l-1.92,1.52h-1.19Z" transform="translate(0)"/>
      <path d="M252.3,25.1A2.54,2.54,0,0,1,253,27v3.38h-1.38v-3.2a1.7,1.7,0,0,0-.36-1.17,1.37,1.37,0,0,0-1-.39,1.58,1.58,0,0,0-1.2.46,1.86,1.86,0,0,0-.44,1.32v3h-1.38v-5.9h1.31v.76a2.29,2.29,0,0,1,.86-.62,3.4,3.4,0,0,1,1.17-.21A2.46,2.46,0,0,1,252.3,25.1Z" transform="translate(0)"/>
      <path d="M254.63,23.3a.81.81,0,0,1,0-1.15l0,0a.87.87,0,0,1,.63-.23.92.92,0,0,1,.63.22.72.72,0,0,1,.25.57.79.79,0,0,1-.25.61.81.81,0,0,1-.63.25A.87.87,0,0,1,254.63,23.3Zm-.07,1.21h1.38v5.9h-1.38Z" transform="translate(0)"/>
      <path d="M263.11,27.9h-4.63a1.62,1.62,0,0,0,.64,1,2.07,2.07,0,0,0,1.27.38,2.13,2.13,0,0,0,1.6-.64l.74.85a2.47,2.47,0,0,1-1,.72,4,4,0,0,1-3.08-.15A2.8,2.8,0,0,1,257.51,29a3.08,3.08,0,0,1-.4-1.56,3.14,3.14,0,0,1,.39-1.56,2.8,2.8,0,0,1,1.09-1.07,3.18,3.18,0,0,1,1.57-.39,3.22,3.22,0,0,1,1.54.38,2.75,2.75,0,0,1,1.06,1.08,3.28,3.28,0,0,1,.38,1.6C263.13,27.59,263.12,27.72,263.11,27.9Zm-4.08-2a1.63,1.63,0,0,0-.56,1h3.35a1.71,1.71,0,0,0-2.79-1Z" transform="translate(0)"/>
      <path d="M267.7,24.45v1.31a1.73,1.73,0,0,0-.32,0,1.65,1.65,0,0,0-1.26.47,1.84,1.84,0,0,0-.45,1.35v2.86h-1.38v-5.9h1.31v.86A2.3,2.3,0,0,1,267.7,24.45Z" transform="translate(0)"/>
      <path d="M268.77,23.3a.81.81,0,0,1,0-1.15l0,0a.87.87,0,0,1,.63-.23.9.9,0,0,1,.63.22.72.72,0,0,1,.25.57.81.81,0,0,1-.24.61.85.85,0,0,1-.64.25A.87.87,0,0,1,268.77,23.3Zm-.06,1.21h1.38v5.9h-1.38Z" transform="translate(0)"/>
      <path d="M277.25,27.9h-4.63a1.62,1.62,0,0,0,.64,1,2.08,2.08,0,0,0,1.28.38,2.16,2.16,0,0,0,1.6-.64l.74.85a2.54,2.54,0,0,1-1,.72,4,4,0,0,1-3.09-.15A2.8,2.8,0,0,1,271.65,29a3.08,3.08,0,0,1-.4-1.56,3.14,3.14,0,0,1,.39-1.56,2.87,2.87,0,0,1,1.09-1.07,3.33,3.33,0,0,1,3.11,0,2.63,2.63,0,0,1,1.06,1.08,3.28,3.28,0,0,1,.38,1.6C277.27,27.59,277.26,27.72,277.25,27.9Zm-4.08-2a1.63,1.63,0,0,0-.56,1H276a1.61,1.61,0,0,0-1.67-1.44,1.64,1.64,0,0,0-1.12.4Z" transform="translate(0)"/>
      <path d="M174.92,36.29a.82.82,0,0,1,0-1.15l0,0a.89.89,0,0,1,.62-.24,1,1,0,0,1,.63.23.73.73,0,0,1,.26.57.86.86,0,0,1-.25.61.93.93,0,0,1-1.26,0Zm-.07,1.21h1.38v5.9h-1.38Z" transform="translate(0)"/>
      <path d="M183,38.08a2.61,2.61,0,0,1,.67,1.94v3.37H182.3v-3.2a1.68,1.68,0,0,0-.36-1.16,1.36,1.36,0,0,0-1-.39,1.57,1.57,0,0,0-1.2.45,1.79,1.79,0,0,0-.44,1.32v3h-1.38V37.5h1.31v.76a2.24,2.24,0,0,1,.86-.62,3.32,3.32,0,0,1,1.17-.21A2.51,2.51,0,0,1,183,38.08Z" transform="translate(0)"/>
      <path d="M186.79,37.19v.35h1.62v1.1h-1.57v4.75h-1.38V38.64h-1v-1.1h1v-.37a2,2,0,0,1,.55-1.5,2.53,2.53,0,0,1,2.8-.23l-.39,1a1.29,1.29,0,0,0-.76-.24C187.08,36.24,186.79,36.56,186.79,37.19Z" transform="translate(0)"/>
      <path d="M190.13,43.08A2.69,2.69,0,0,1,189,42a3.21,3.21,0,0,1,0-3.12,2.75,2.75,0,0,1,1.12-1.07,3.54,3.54,0,0,1,3.23,0,2.75,2.75,0,0,1,1.12,1.07,3.21,3.21,0,0,1,0,3.12,2.69,2.69,0,0,1-1.12,1.07A3.54,3.54,0,0,1,190.13,43.08Zm2.87-1.3a2,2,0,0,0,0-2.67,1.66,1.66,0,0,0-1.26-.5,1.62,1.62,0,0,0-1.25.5,2,2,0,0,0,0,2.67,1.63,1.63,0,0,0,1.25.51,1.67,1.67,0,0,0,1.26-.51Z" transform="translate(0)"/>
      <path d="M199.46,37.43v1.32l-.32,0a1.71,1.71,0,0,0-1.26.47,1.88,1.88,0,0,0-.46,1.36v2.85H196V37.5h1.32v.86A2.31,2.31,0,0,1,199.46,37.43Z" transform="translate(0)"/>
      <path d="M209.67,38.08a2.64,2.64,0,0,1,.65,1.94v3.37h-1.38v-3.2a1.68,1.68,0,0,0-.35-1.16,1.21,1.21,0,0,0-1-.39,1.41,1.41,0,0,0-1.11.46,1.85,1.85,0,0,0-.42,1.3v3H204.7V40.2a1.75,1.75,0,0,0-.34-1.17,1.28,1.28,0,0,0-1-.39,1.44,1.44,0,0,0-1.12.45,1.9,1.9,0,0,0-.41,1.32v3h-1.38V37.5h1.31v.75a2.24,2.24,0,0,1,.83-.6,2.6,2.6,0,0,1,1.1-.21,2.66,2.66,0,0,1,1.18.24,2,2,0,0,1,.81.74,2.37,2.37,0,0,1,.94-.72,2.92,2.92,0,0,1,1.27-.26A2.37,2.37,0,0,1,209.67,38.08Z" transform="translate(0)"/>
      <path d="M216.16,38.06a2.35,2.35,0,0,1,.69,1.88v3.45h-1.3v-.71a1.55,1.55,0,0,1-.72.59,2.9,2.9,0,0,1-1.13.2,2.73,2.73,0,0,1-1.16-.23,1.75,1.75,0,0,1-.77-.63,1.62,1.62,0,0,1-.27-.91,1.59,1.59,0,0,1,.59-1.27A2.87,2.87,0,0,1,214,40h1.53v-.09a1.24,1.24,0,0,0-.37-1,1.63,1.63,0,0,0-1.1-.33,3.28,3.28,0,0,0-1,.15,2.28,2.28,0,0,0-.81.44l-.54-1a3.3,3.3,0,0,1,1.11-.55,5,5,0,0,1,1.38-.18A2.86,2.86,0,0,1,216.16,38.06Zm-1.25,4.17a1.32,1.32,0,0,0,.57-.68v-.68h-1.43c-.79,0-1.19.26-1.19.78a.69.69,0,0,0,.3.6,1.33,1.33,0,0,0,.83.22,1.76,1.76,0,0,0,.92-.24Z" transform="translate(0)"/>
      <path d="M222,43.07a1.57,1.57,0,0,1-.59.3,2.32,2.32,0,0,1-.74.1,2.06,2.06,0,0,1-1.5-.5,2,2,0,0,1-.53-1.48V38.65h-1v-1.1h1V36.2H220v1.35h1.58v1.1H220v2.8a1,1,0,0,0,.21.66.76.76,0,0,0,.61.22,1.18,1.18,0,0,0,.77-.24Z" transform="translate(0)"/>
      <path d="M223,36.29a.81.81,0,0,1,0-1.15l0,0a.9.9,0,0,1,.63-.24.93.93,0,0,1,.62.23.73.73,0,0,1,.26.57.86.86,0,0,1-.25.61.84.84,0,0,1-.63.25A.86.86,0,0,1,223,36.29ZM223,37.5h1.38v5.9H223Z" transform="translate(0)"/>
      <path d="M231.76,37.5v8h-1.38V42.68a2.38,2.38,0,0,1-1.89.79A3.16,3.16,0,0,1,227,43.1,2.7,2.7,0,0,1,225.89,42a3.17,3.17,0,0,1-.38-1.59,3.21,3.21,0,0,1,.38-1.58A2.7,2.7,0,0,1,227,37.81a3.19,3.19,0,0,1,2.65-.17,2.19,2.19,0,0,1,.84.63V37.5Zm-1.86,4.28a2,2,0,0,0,0-2.67,1.7,1.7,0,0,0-1.26-.51,1.68,1.68,0,0,0-1.25.51,2,2,0,0,0,0,2.67,1.65,1.65,0,0,0,1.25.51,1.7,1.7,0,0,0,1.26-.51Z" transform="translate(0)"/>
      <path d="M239.11,37.5v5.9H237.8v-.75a2.27,2.27,0,0,1-.83.61,2.66,2.66,0,0,1-1.07.22,2.34,2.34,0,0,1-2.54-2.61V37.5h1.38v3.18a1.66,1.66,0,0,0,.36,1.19,1.29,1.29,0,0,0,1,.39,1.52,1.52,0,0,0,1.17-.46,1.8,1.8,0,0,0,.44-1.31v-3Z" transform="translate(0)"/>
      <path d="M246.27,40.89h-4.62a1.61,1.61,0,0,0,.63,1,2.08,2.08,0,0,0,1.28.38,2.13,2.13,0,0,0,1.6-.64l.74.85a2.47,2.47,0,0,1-1,.72,4,4,0,0,1-3.08-.15A2.76,2.76,0,0,1,240.67,42a3.22,3.22,0,0,1,0-3.11,2.74,2.74,0,0,1,1.08-1.08,3.29,3.29,0,0,1,1.57-.39,3.17,3.17,0,0,1,1.54.38,2.69,2.69,0,0,1,1.06,1.08,3.28,3.28,0,0,1,.38,1.6A3.94,3.94,0,0,1,246.27,40.89Zm-4.08-2a1.66,1.66,0,0,0-.55,1H245a1.61,1.61,0,0,0-1.66-1.44,1.68,1.68,0,0,0-1.13.4Z" transform="translate(0)"/>
    </g>
  </g>
  <path class="bf3a2f45-7f2b-409f-9e17-bad5ca918874" d="M143.66,16a7,7,0,0,1,7-7v1.5a5.46,5.46,0,0,0,0,10.92V23a7,7,0,0,1-7-7" transform="translate(0)"/>
  <path class="bf3a2f45-7f2b-409f-9e17-bad5ca918874" d="M152.88,19a3.54,3.54,0,0,1-2.28.87A2.35,2.35,0,0,1,148,17.59v0a2.26,2.26,0,0,1,1.52-2.14,2.58,2.58,0,0,1-.55-1.56v0a2.14,2.14,0,0,1,2.36-2,2,2,0,0,1,2.19,2v0a2.16,2.16,0,0,1-1.63,2l1,1c.26-.4.51-.85.76-1.33l1.25.69a15.34,15.34,0,0,1-1,1.65L155,19l-1.26.88Zm-1-1-1.49-1.51a1.15,1.15,0,0,0-.72,1v0c0,.55.45.91,1.09.91a1.8,1.8,0,0,0,1.12-.44m.09-4.11v0a.68.68,0,0,0-.73-.72.73.73,0,0,0-.76.79v0a1.37,1.37,0,0,0,.46,1c.67-.26,1-.55,1-1" transform="translate(0)"/>
  <path class="bf3a2f45-7f2b-409f-9e17-bad5ca918874" d="M159,16a7,7,0,0,1-7,7v-1.5a5.46,5.46,0,1,0,0-10.92V9a7,7,0,0,1,7,7" transform="translate(0)"/>
</svg>
